# xmcd CD database file
#
# Track frame offsets:
#	150
#	16500
#	30443
#	43468
#	55815
#	69818
#	82968
#	95598
#	108978
#	121650
#	135190
#	146840
#	160643
#	172145
#	185975
#	197793
#	211478
#	225128
#
# Disc length: 3179 seconds
#
# Revision: 0
# Processed by: cddbd v1.5.1PL0 Copyright (c) Steve Scherf et al.
# Submitted via: CDex 1.51
#
DISCID=e80c6912
DTITLE=King Oliver - The king of New Orleans 1923-1930
DYEAR=1993
DGENRE=Jazz
TTITLE0=West end blues
TTITLE1=I'm watchin' the clock
TTITLE2=I want you just for myself
TTITLE3=New Orleans shout
TTITLE4=Snag it
TTITLE5=Sugar foot stomp
TTITLE6=Wa wa wa
TTITLE7=Showboat shuffle
TTITLE8=Speakeasy blues
TTITLE9=Aunt Hagar's blues
TTITLE10=You're just my type
TTITLE11=Chimes blues
TTITLE12=Canal street blues
TTITLE13=Snake rag
TTITLE14=Dippermouth blues
TTITLE15=Chattanooga stomp
TTITLE16=Camp meeting blues
TTITLE17=Riverside blues
EXTD=YEAR: 1993
EXTT0=
EXTT1=
EXTT2=
EXTT3=
EXTT4=
EXTT5=
EXTT6=
EXTT7=
EXTT8=
EXTT9=
EXTT10=
EXTT11=
EXTT12=
EXTT13=
EXTT14=
EXTT15=
EXTT16=
EXTT17=
PLAYORDER=
